<svg xmlns="http://www.w3.org/2000/svg" viewBox="0 0 69.28 41.32">
  <title>logo</title>
  <g id="Слой_2" data-name="Слой 2">
    <g id="Layer_1" data-name="Layer 1">
      <ellipse cx="2.12" cy="28.69" rx="1.97" ry="2.73" transform="translate(-11.52 3.36) rotate(-24.07)"
               fill="#262424"/>
      <ellipse cx="12.77" cy="36.21" rx="1.51" ry="1.24" transform="translate(-13.66 8.35) rotate(-24.07)"
               fill="#262424"/>
      <path d="M24.66,38c1.25,1.48,4.94,2.46,9.64,3-4-2.59-7.9-5.12-11.72-7.58A8.27,8.27,0,0,0,24.66,38Z"
            fill="#262424"/>
      <path
        d="M9.62,31.19c1.93,2.85,6.22.95,9-.35-3.52-2.25-7-4.44-10.48-6.58a6.12,6.12,0,0,1,1,2.27C9.53,28.52,8.63,29.73,9.62,31.19Z"
        fill="#262424"/>
      <path
        d="M3.89,15.57c11.55,7.24,22.33,15.87,37,25.74,2.56,0,5.2-.05,7.78-.24C28.49,28.72,20,18.46,9,11,6.83,11.89,4.9,13.12,3.89,15.57Z"
        fill="#262424"/>
      <path
        d="M67,34.78a9,9,0,0,0,2.26-6.42C46.51,23.22,50,15,39,8.66a9.55,9.55,0,0,1-5.3-.46A16.1,16.1,0,0,1,29,4.68a98.42,98.42,0,0,0-10-2.1c-.22.47-.39,1-.59,1.52C43,10.22,31.35,23,67,34.78Z"
        fill="#262424"/>
      <path
        d="M17.71,5.71a7.34,7.34,0,0,1-2.29,2.38,11.16,11.16,0,0,1-1.76,1C24.44,16.42,30,27.34,54.52,40.41c1.4-.22,2.74-.47,4-.76A19.21,19.21,0,0,0,63,38C30.26,24.62,33.55,12.44,17.71,5.71Z"
        fill="#262424"/>
      <path d="M22.19.17A5,5,0,0,0,20,1.24c2.45.36,4.71.75,6.78,1.15C24.9.38,24.3-.37,22.19.17Z" fill="#262424"/>
      <path d="M44.55,8c10.74,5.75,8,12.22,23.07,15-.25-.45-.52-.9-.83-1.36C63.81,17.2,53.37,8.7,44.55,8Z"
            fill="#262424"/>
    </g>
  </g>
</svg>
