<svg xmlns="http://www.w3.org/2000/svg" viewBox="0 0 71.17 78.02">
  <title>logo_footer</title>
  <g id="Слой_2" data-name="Слой 2">
    <g id="Layer_1" data-name="Layer 1">
      <path
        d="M10.7,72.09a3.24,3.24,0,0,1-3.51,3.35H2.35v2.45H0V68.73H7.19A3.25,3.25,0,0,1,10.7,72.09Zm-2.36,0c0-1.38-1.1-1.38-1.8-1.38H2.35v2.76H6.54C7.24,73.47,8.34,73.47,8.34,72.09Z"
        fill="#262424"/>
      <path
        d="M20.66,75.17l1.69,2.72H19.57L18.1,75.44H14.31v2.45H12V68.73h7.19a3.25,3.25,0,0,1,3.51,3.36A3.14,3.14,0,0,1,20.66,75.17Zm-6.35-1.7h4.18c.71,0,1.8,0,1.8-1.38s-1.09-1.38-1.8-1.38H14.31Z"
        fill="#262424"/>
      <path d="M26.43,70.6v1.86h7.32v1.7H26.43V76h7.32v1.87H24.08V68.73h9.67V70.6Z" fill="#262424"/>
      <path
        d="M37.35,74.74c0,1,.79,1.41,3.77,1.41,2.47,0,3.21-.28,3.21-1s-.52-.89-3.49-1c-4-.18-5.57-.81-5.57-2.86s2-2.66,5.48-2.66,5.54.87,5.54,3.13H43.94c0-1-1-1.26-3.45-1.26s-2.86.22-2.86.9.54.84,3.21,1c3.61.19,5.85.39,5.85,2.71S44.37,78,41,78c-3.76,0-6-.64-6-3.28Z"
        fill="#262424"/>
      <path d="M58.8,70.71H54.35v7.18H52V70.71H47.55v-2H58.8Z" fill="#262424"/>
      <path
        d="M59.66,73.3c0-3,1.73-4.7,5.75-4.7s5.76,1.68,5.76,4.7S69.43,78,65.41,78,59.66,76.34,59.66,73.3Zm9.15,0c0-1.86-.94-2.72-3.4-2.72S62,71.43,62,73.3,63,76,65.41,76,68.81,75.17,68.81,73.3Z"
        fill="#262424"/>
      <ellipse cx="3.06" cy="28.69" rx="1.97" ry="2.73" transform="translate(-11.43 3.74) rotate(-24.07)"
               fill="#262424"/>
      <ellipse cx="13.71" cy="36.21" rx="1.51" ry="1.24" transform="translate(-13.57 8.74) rotate(-24.07)"
               fill="#262424"/>
      <path d="M25.6,38c1.26,1.48,4.95,2.46,9.64,3-4-2.59-7.9-5.12-11.72-7.58A8.27,8.27,0,0,0,25.6,38Z" fill="#262424"/>
      <path
        d="M10.56,31.19c1.93,2.85,6.22.95,9-.35-3.52-2.25-7-4.44-10.48-6.58a6,6,0,0,1,1,2.27C10.47,28.52,9.57,29.73,10.56,31.19Z"
        fill="#262424"/>
      <path
        d="M4.83,15.57c11.55,7.24,22.33,15.87,37,25.74,2.56,0,5.2-.05,7.78-.24C29.43,28.72,21,18.46,9.92,11,7.78,11.89,5.84,13.12,4.83,15.57Z"
        fill="#262424"/>
      <path
        d="M68,34.78a9,9,0,0,0,2.26-6.42C47.45,23.22,50.92,15,40,8.66a9.56,9.56,0,0,1-5.3-.46,16.1,16.1,0,0,1-4.74-3.52,98.42,98.42,0,0,0-10-2.1c-.22.47-.39,1-.59,1.52C43.91,10.22,32.29,23,68,34.78Z"
        fill="#262424"/>
      <path
        d="M18.65,5.71a7.34,7.34,0,0,1-2.29,2.38,11.16,11.16,0,0,1-1.76,1C25.38,16.42,31,27.34,55.46,40.41c1.4-.22,2.74-.47,4-.76A18.88,18.88,0,0,0,63.89,38C31.2,24.62,34.5,12.44,18.65,5.71Z"
        fill="#262424"/>
      <path d="M23.13.17a5,5,0,0,0-2.2,1.07c2.45.36,4.71.75,6.78,1.15C25.84.38,25.24-.37,23.13.17Z" fill="#262424"/>
      <path d="M45.49,8c10.74,5.75,8,12.22,23.07,15-.25-.45-.52-.9-.83-1.36C64.75,17.2,54.31,8.7,45.49,8Z"
            fill="#262424"/>
    </g>
  </g>
</svg>
