<svg width="23" height="17" viewBox="0 0 23 17" fill="none" xmlns="http://www.w3.org/2000/svg">
<path d="M22.6868 7.7438L15.8424 0.899378C15.4248 0.481783 14.7475 0.481783 14.3299 0.899378C13.9122 1.31706 13.9122 1.99414 14.3299 2.41182L19.3487 7.43058H1.06944C0.478853 7.43058 0 7.90944 0 8.50002C0 9.09053 0.478853 9.56946 1.06944 9.56946H19.3487L14.3301 14.5882C13.9124 15.0059 13.9124 15.683 14.3301 16.1007C14.5388 16.3093 14.8126 16.4139 15.0863 16.4139C15.36 16.4139 15.6337 16.3093 15.8425 16.1007L22.6868 9.25625C23.1045 8.83857 23.1045 8.16148 22.6868 7.7438Z" fill="black"/>
</svg>
