<svg width="23" height="17" viewBox="0 0 23 17" fill="none" xmlns="http://www.w3.org/2000/svg">
<path d="M0.313219 7.7438L7.15764 0.899378C7.57524 0.481783 8.25249 0.481783 8.67009 0.899378C9.08777 1.31706 9.08777 1.99414 8.67009 2.41182L3.65133 7.43058H21.9306C22.5211 7.43058 23 7.90944 23 8.50002C23 9.09053 22.5211 9.56946 21.9306 9.56946H3.65133L8.66992 14.5882C9.0876 15.0059 9.0876 15.683 8.66992 16.1007C8.46116 16.3093 8.18738 16.4139 7.91369 16.4139C7.64 16.4139 7.36631 16.3093 7.15747 16.1007L0.313219 9.25625C-0.104462 8.83857 -0.104462 8.16148 0.313219 7.7438Z" fill="black"/>
</svg>
